:SAMPLES-PER-SECOND 30
:FULLY-SPECIFIED
:DEGREES
139
root  2.863288864 37.05133453 3.30702226 -3.093002319 -70.53700256 0.5769958496
lowerback  12.7741003 -0.4177800119 1.179139972
upperback  2.984070063 -0.4374539852 1.196490049
thorax  -4.025159836 -0.264425993 0.6568899751
lowerneck  -6.951019764 11.05879974 -1.091539979
upperneck  4.841800213 15.30840015 -6.499680042
head  3.243760109 7.321340084 -1.128880024
lclavicle  0 -9.442270133e-015 7.951389973e-016
lhumerus  -10.0788002 -7.847030163 83.06199646
lradius  2.69892801e-031 -2.27697862e-031 139.8470001
lwrist  -7.062250077e-031 -3.531125038e-031 3.370769978
lhand  -1.496451383e-031 -27.76390076 20.11240005
lfingers  90 7.125020027 -90
lthumb  89.89689403 5.08795885 91.16245106
rclavicle  0 -9.442270133e-015 7.951389973e-016
rhumerus  -33.32730103 28.49349976 -75.97319794
rradius  -2.221634513e-031 2.744664666e-031 128.9880066
rwrist  7.062250077e-031 -3.531125038e-031 -2.791330099
rhand  -7.920061211e-032 -33.2840004 9.303460121
rfingers  -90 -7.125020027 -90
rthumb  -92.93752616 -24.25625642 -97.11982154
rfemur  -2.628789902 24.8885994 6.793479919
rtibia  -0 0 54.5007019
rfoot  -4.710335877e-032 -20.43510056 -3.470999956
rtoes  5.373923086 19.29304026 -105.8922705
lfemur  -27.74029922 0.7683910131 4.989379883
ltibia  -0 0 49.31890106
lfoot  4.425962136e-032 -4.229909897 -5.340819836
ltoes  -4.250644065 -19.5611806 -102.515957
140
root  2.729977773 36.97288994 3.497400059 -2.167007446 -69.33999634 -0.5950012207
lowerback  12.70940018 -0.5086939931 1.086490035
upperback  2.803030014 -0.5520240068 1.412700057
thorax  -4.176169872 -0.3175030053 0.9542639852
lowerneck  -6.850580215 10.93449974 -1.51699996
upperneck  4.571780205 15.14599991 -6.405920029
head  3.079900026 7.248050213 -1.059319973
lclavicle  0 -9.442270133e-015 7.951389973e-016
lhumerus  -10.66800022 -8.105660439 84.17479706
lradius  2.707374024e-031 -2.266929626e-031 140.0599976
lwrist  -1.412450015e-030 -0 2.859790087
lhand  -1.496451383e-031 -27.76390076 20.11240005
lfingers  90 7.125020027 -90
lthumb  89.89689403 5.08795885 91.16245106
rclavicle  0 -9.442270133e-015 7.951389973e-016
rhumerus  -33.0943985 28.21360016 -74.14859772
rradius  -2.267070943e-031 2.707255691e-031 129.9429932
rwrist  1.412450015e-030 -0 -2.882800102
rhand  -7.920061211e-032 -33.2840004 9.303460121
rfingers  -90 -7.125020027 -90
rthumb  -92.93752616 -24.25625642 -97.11982154
rfemur  -1.832049966 24.69820023 7.365849972
rtibia  -0 0 54.70759964
rfoot  -4.677990904e-032 -19.34390068 -2.533669949
rtoes  5.373923086 19.29304026 -105.8922705
lfemur  -28.34970093 0.6546239853 4.812749863
ltibia  -0 0 49.40129852
lfoot  6.647115679e-032 -5.094250202 -3.093240023
ltoes  -4.250644065 -19.5611806 -102.515957
141
root  2.594777731 36.91911172 3.671555632 -1.710006714 -67.83499908 -1.214004517
lowerback  12.61159992 -0.6105110049 0.7297449708
upperback  2.698250055 -0.7262409925 1.444090009
thorax  -4.226349831 -0.3972359896 1.21589005
lowerneck  -7.068470001 10.76399994 -1.511919975
upperneck  4.325600147 14.90460014 -6.367010117
head  3.025540113 7.134230137 -1.05569005
lclavicle  0 -9.442270133e-015 7.951389973e-016
lhumerus  -10.73400021 -8.353890419 84.68979645
lradius  2.717633498e-031 -2.254620191e-031 140.3200073
lwrist  -1.412450015e-030 -0 3.267620087
lhand  -1.496451383e-031 -27.76390076 20.11240005
lfingers  90 7.125020027 -90
lthumb  89.89689403 5.08795885 91.16245106
rclavicle  0 -9.442270133e-015 7.951389973e-016
rhumerus  -32.75550079 27.48550034 -72.51180267
rradius  -2.309921475e-031 2.670787677e-031 130.8560028
rwrist  1.059337512e-030 -0 -3.175199986
rhand  -7.920061211e-032 -33.2840004 9.303460121
rfingers  -90 -7.125020027 -90
rthumb  -92.93752616 -24.25625642 -97.11982154
rfemur  -1.123559952 24.31110001 7.795629978
rtibia  -0 0 54.96849823
rfoot  -4.638126566e-032 -17.88829994 -1.709589958
rtoes  5.373923086 19.29304026 -105.8922705
lfemur  -29.17670059 0.6142249703 4.392590046
ltibia  -0 0 49.72380066
lfoot  4.435719766e-032 -5.684549809 -1.75680995
ltoes  -4.250644065 -19.5611806 -102.515957
142
root  2.446177813 36.88377921 3.827933439 -1.151000977 -65.9980011 -1.893997192
lowerback  12.50699997 -0.7363920212 0.2926119864
upperback  2.681610107 -0.9493499994 1.38827002
thorax  -4.177010059 -0.5012739897 1.437940001
lowerneck  -7.984560013 10.52439976 -1.424010038
upperneck  4.467999935 14.59679985 -6.019299984
head  3.211669922 6.972249985 -0.9199740291
lclavicle  0 -9.442270133e-015 7.951389973e-016
lhumerus  -10.59889984 -8.394160271 84.92189789
lradius  2.730378518e-031 -2.239168861e-031 140.6450043
lwrist  -1.059337512e-030 -1.765562519e-031 4.530539989
lhand  -1.496451383e-031 -27.76390076 20.11240005
lfingers  90 7.125020027 -90
lthumb  89.89689403 5.08795885 91.16245106
rclavicle  0 -9.442270133e-015 7.951389973e-016
rhumerus  -32.42570114 26.48250008 -71.01319885
rradius  -2.354574111e-031 2.631506183e-031 131.8209991
rwrist  7.062250077e-031 -3.531125038e-031 -3.509370089
rhand  -7.920061211e-032 -33.2840004 9.303460121
rfingers  -90 -7.125020027 -90
rthumb  -92.93752616 -24.25625642 -97.11982154
rfemur  -0.4192770123 23.74979973 8.390709877
rtibia  -0 0 55.20349884
rfoot  -5.170437854e-032 -16.17989922 -0.6718609929
rtoes  5.373923086 19.29304026 -105.8922705
lfemur  -30.20089912 0.500838995 4.047510147
ltibia  -0 0 50.2737999
lfoot  5.547576645e-032 -5.980559826 -1.30388999
ltoes  -4.250644065 -19.5611806 -102.515957
143
root  2.274311058 36.8568901 3.975688754 -0.7129974365 -63.75700378 -2.449005127
lowerback  12.3178997 -0.9478039742 -0.2525900006
upperback  2.665339947 -1.298370004 1.332329988
thorax  -4.071760178 -0.6667690277 1.737730026
lowerneck  -8.729299545 10.22920036 -1.582440019
upperneck  4.530310154 14.20919991 -5.465600014
head  3.299789906 6.783569813 -0.7009459734
lclavicle  0 -9.442270133e-015 7.951389973e-016
lhumerus  -10.65950012 -8.349430084 85.14409637
lradius  2.740783359e-031 -2.226421033e-031 140.9120026
lwrist  0 -1.765562519e-031 5.949029922
lhand  -1.496451383e-031 -27.76390076 20.11240005
lfingers  90 7.125020027 -90
lthumb  89.89689403 5.08795885 91.16245106
rclavicle  0 -9.442270133e-015 7.951389973e-016
rhumerus  -32.36109924 25.61590004 -69.66680145
rradius  -2.393307401e-031 2.596328893e-031 132.6699982
rwrist  3.531125038e-031 -3.531125038e-031 -3.476500034
rhand  -7.920061211e-032 -33.2840004 9.303460121
rfingers  -90 -7.125020027 -90
rthumb  -92.93752616 -24.25625642 -97.11982154
rfemur  0.4789429903 23.12849998 9.151240349
rtibia  -0 0 55.30559921
rfoot  -4.55177663e-032 -14.13790035 0.4933409989
rtoes  5.373923086 19.29304026 -105.8922705
lfemur  -31.33749962 0.1812749952 3.710659981
ltibia  -0 0 50.98839951
lfoot  4.437379758e-032 -5.895959854 -1.535320044
ltoes  -4.250644065 -19.5611806 -102.515957
144
root  2.085473406 36.83911121 4.109800144 -0.1940002441 -61.07900238 -3.082992554
lowerback  12.02280045 -1.204329967 -0.7039160132
upperback  2.644049883 -1.693009973 1.259529948
thorax  -3.908790112 -0.856670022 1.968520045
lowerneck  -9.072779655 9.786379814 -1.848850012
upperneck  4.372570038 13.60379982 -4.85450983
head  3.223390102 6.505099773 -0.4908469915
lclavicle  0 -9.442270133e-015 7.951389973e-016
lhumerus  -10.58510017 -8.643280029 85.22920227
lradius  2.745168687e-031 -2.221011688e-031 141.0249939
lwrist  -7.062250077e-031 -1.765562519e-031 6.822840214
lhand  -1.496451383e-031 -27.76390076 20.11240005
lfingers  90 7.125020027 -90
lthumb  89.89689403 5.08795885 91.16245106
rclavicle  0 -9.442270133e-015 7.951389973e-016
rhumerus  -32.52840042 24.40609932 -68.4552002
rradius  -2.426908293e-031 2.564948377e-031 133.4160004
rwrist  1.059337512e-030 -0 -3.507309914
rhand  -7.920061211e-032 -33.2840004 9.303460121
rfingers  -90 -7.125020027 -90
rthumb  -92.93752616 -24.25625642 -97.11982154
rfemur  1.624840021 22.47979927 10.19279957
rtibia  -0 0 55.16550064
rfoot  -4.509440914e-032 -11.81480026 1.767009974
rtoes  5.373923086 19.29304026 -105.8922705
lfemur  -32.68259811 -0.3817909956 3.55479002
ltibia  -0 0 51.74219894
lfoot  6.651348563e-032 -5.488090038 -2.443919897
ltoes  -4.250644065 -19.5611806 -102.515957
